<?xml version="1.0" encoding="UTF-8" standalone="no"?>
<!-- Generator: Adobe Illustrator 23.0.0, SVG Export Plug-In . SVG Version: 6.00 Build 0)  -->

<svg
   version="1.1"
   id="Layer_1"
   x="0px"
   y="0px"
   viewBox="0 0 10 10"
   xml:space="preserve"
   sodipodi:docname="MU.svg"
   width="10"
   height="10"
   inkscape:version="1.1 (c4e8f9e, 2021-05-24)"
   xmlns:inkscape="http://www.inkscape.org/namespaces/inkscape"
   xmlns:sodipodi="http://sodipodi.sourceforge.net/DTD/sodipodi-0.dtd"
   xmlns="http://www.w3.org/2000/svg"
   xmlns:svg="http://www.w3.org/2000/svg"
   xmlns:rdf="http://www.w3.org/1999/02/22-rdf-syntax-ns#"
   xmlns:cc="http://creativecommons.org/ns#"
   xmlns:dc="http://purl.org/dc/elements/1.1/"><defs
   id="defs857" /><sodipodi:namedview
   id="namedview855"
   pagecolor="#ffffff"
   bordercolor="#666666"
   borderopacity="1.0"
   inkscape:pageshadow="2"
   inkscape:pageopacity="0.0"
   inkscape:pagecheckerboard="0"
   showgrid="false"
   inkscape:zoom="45.254834"
   inkscape:cx="3.7454562"
   inkscape:cy="4.5851455"
   inkscape:window-width="1680"
   inkscape:window-height="997"
   inkscape:window-x="0"
   inkscape:window-y="25"
   inkscape:window-maximized="1"
   inkscape:current-layer="text2019" />
<style
   type="text/css"
   id="style824">
	.st0{fill:#565656;}
	.st1{fill:#4267B2;}
	.st2{fill:#FFFFFF;}
</style>
<title
   id="title826">f-ogo_RGB_HEX-58</title>



<metadata
   id="metadata939"><rdf:RDF><cc:Work
       rdf:about=""><dc:title>f-ogo_RGB_HEX-58</dc:title></cc:Work></rdf:RDF></metadata><g
   aria-label="MU"
   id="text2019"
   style="font-size:13.3333px;line-height:1.25;font-family:'Andale Mono';-inkscape-font-specification:'Andale Mono, Normal'"><rect
     style="fill:#424245;stroke-width:1.87463;stroke-dasharray:1.87463, 5.62389;fill-opacity:1"
     id="rect3547"
     width="10"
     height="10"
     x="0"
     y="0" /><path
     id="path5395"
     style="text-align:center;text-anchor:middle;fill:#d6d6d6;stroke-width:0.918253;fill-opacity:1"
     d="M 0.5,0.74249896 V 9.2575009 H 1.4362416 V 1.9558823 L 2.6975918,5.4503552 H 3.6142914 L 4.8756416,1.9558823 c 0,0 0,3.0248717 0,4.5373076 0,1.8436463 0.7780108,2.7643111 2.3326095,2.7643111 0.7715978,0 1.3451802,-0.2218748 1.7214766,-0.6679826 C 9.3098254,8.1434113 9.5,7.4355415 9.5,6.4683181 V 0.74249896 H 8.565535 V 6.3919265 c 0,0.7106132 -0.109981,1.2244406 -0.3304383,1.5402686 -0.2166548,0.3158276 -0.5593255,0.472562 -1.0268456,0.472562 -0.9312388,0 -1.3963679,-0.6660219 -1.3963679,-2.0003947 0,-1.8872878 0,-5.66186344 0,-5.66186344 H 4.550533 L 3.1594948,4.6224831 1.7613502,0.74249896 Z"
     sodipodi:nodetypes="ccccccccscsccscscccccc" /></g></svg>
