<?xml version="1.0" encoding="UTF-8" standalone="no"?>
<!-- Created with Inkscape (http://www.inkscape.org/) -->

<svg
   width="67.809998mm"
   height="8.2010002mm"
   viewBox="0 0 67.809997 8.2010002"
   version="1.1"
   id="svg5"
   inkscape:version="1.1 (c4e8f9e, 2021-05-24)"
   sodipodi:docname="my_logo.svg"
   xmlns:inkscape="http://www.inkscape.org/namespaces/inkscape"
   xmlns:sodipodi="http://sodipodi.sourceforge.net/DTD/sodipodi-0.dtd"
   xmlns="http://www.w3.org/2000/svg"
   xmlns:svg="http://www.w3.org/2000/svg">
  <sodipodi:namedview
     id="namedview7"
     pagecolor="#ffffff"
     bordercolor="#666666"
     borderopacity="1.0"
     inkscape:pageshadow="2"
     inkscape:pageopacity="0.0"
     inkscape:pagecheckerboard="0"
     inkscape:document-units="mm"
     showgrid="false"
     inkscape:zoom="1.3416246"
     inkscape:cx="186.71393"
     inkscape:cy="168.82517"
     inkscape:window-width="1680"
     inkscape:window-height="997"
     inkscape:window-x="0"
     inkscape:window-y="25"
     inkscape:window-maximized="1"
     inkscape:current-layer="text1788"
     width="67.81mm" />
  <defs
     id="defs2" />
  <g
     inkscape:label="Layer 1"
     inkscape:groupmode="layer"
     id="layer1">
    <g
       aria-label="Masaaki's HP"
       id="text1788"
       style="font-size:10.5833px;line-height:1.25;font-family:'Apple Braille';-inkscape-font-specification:'Apple Braille, Normal';fill:#d6d6d6;stroke-width:0.264583">
      <path
         d="M 6.8522731,8.0408268 H 5.829083 V 1.4107616 L 3.6896855,5.9220998 H 3.0799056 L 0.95601096,1.4107616 V 8.0408268 H 0 V 0.34623053 H 1.3952592 L 3.4468071,4.6301931 5.4311757,0.34623053 h 1.4210974 z"
         id="path1004" />
      <path
         d="M 13.337645,8.0408268 H 12.371298 V 7.4258792 q -0.12919,0.08785 -0.351398,0.2480461 -0.217041,0.1550288 -0.423746,0.2480461 -0.242878,0.1188554 -0.558103,0.1963698 -0.315226,0.082682 -0.738971,0.082682 -0.7803117,0 -1.3229125,-0.5167627 -0.5426008,-0.5167626 -0.5426008,-1.3177448 0,-0.6562886 0.2790519,-1.0593635 Q 8.996838,4.8989097 9.5187683,4.6663665 10.045866,4.4338233 10.784837,4.3511413 11.523808,4.2684593 12.371298,4.2271182 V 4.0772571 q 0,-0.3307282 -0.118855,-0.5477685 Q 12.138755,3.3124483 11.921715,3.1884253 11.71501,3.0695698 11.425623,3.0282288 11.136236,2.9868878 10.82101,2.9868878 q -0.382404,0 -0.8526581,0.1033525 Q 9.4980978,3.1884253 8.996838,3.3796274 H 8.9451618 V 2.3926107 q 0.2842195,-0.077514 0.8216526,-0.1705317 0.5374336,-0.093017 1.0593636,-0.093017 0.60978,0 1.059363,0.1033525 0.454752,0.098185 0.78548,0.3410634 0.32556,0.2377108 0.496092,0.6149476 0.170532,0.3772367 0.170532,0.9353404 z M 12.371298,6.6197294 V 5.0125975 q -0.444416,0.025838 -1.049028,0.077514 -0.599445,0.051676 -0.950843,0.1498612 -0.418578,0.1188554 -0.6769593,0.3720691 -0.2583814,0.2480461 -0.2583814,0.6872944 0,0.4960921 0.2997224,0.7493059 0.2997223,0.248046 0.9146703,0.248046 0.511595,0 0.93534,-0.1963698 0.423745,-0.2015374 0.785479,-0.4805893 z"
         id="path1006" />
      <path
         d="m 19.342427,6.376851 q 0,0.7906469 -0.656289,1.2970743 -0.651121,0.5064274 -1.782831,0.5064274 -0.640786,0 -1.178219,-0.1498612 Q 15.192822,7.8754627 14.831089,7.6945958 V 6.6042266 h 0.05168 q 0.459919,0.3462309 1.02319,0.552936 0.563271,0.2015375 1.080034,0.2015375 0.640786,0 1.00252,-0.2067051 0.361733,-0.2067051 0.361733,-0.651121 0,-0.3410633 -0.196369,-0.5167627 Q 17.957503,5.808412 17.399399,5.684389 17.192694,5.6378803 16.856798,5.5758688 16.52607,5.5138573 16.252186,5.4415105 15.492545,5.2399731 15.172152,4.8524011 14.856927,4.4596614 14.856927,3.8912225 q 0,-0.3565663 0.144693,-0.6717915 0.149861,-0.3152252 0.449584,-0.5632713 0.289387,-0.2428785 0.733803,-0.3824044 0.449583,-0.1446935 1.002519,-0.1446935 0.516763,0 1.043861,0.1291906 0.532266,0.1240231 0.883664,0.30489 v 1.038693 h -0.05168 Q 18.691306,3.3279512 18.15904,3.1419166 17.626775,2.9507144 17.11518,2.9507144 q -0.532266,0 -0.899167,0.2067051 -0.366902,0.2015374 -0.366902,0.6046123 0,0.3565663 0.222208,0.5374332 0.21704,0.1808669 0.702797,0.2945547 0.268717,0.062012 0.599445,0.1240231 0.335896,0.062011 0.558104,0.1136878 0.676959,0.1550288 1.04386,0.5322655 0.366902,0.3824044 0.366902,1.0128549 z"
         id="path1008" />
      <path
         d="M 25.223186,8.0408268 H 24.25684 V 7.4258792 q -0.12919,0.08785 -0.351398,0.2480461 -0.217041,0.1550288 -0.423746,0.2480461 -0.242878,0.1188554 -0.558103,0.1963698 -0.315226,0.082682 -0.738971,0.082682 -0.780312,0 -1.322913,-0.5167627 -0.5426,-0.5167626 -0.5426,-1.3177448 0,-0.6562886 0.279051,-1.0593635 0.28422,-0.4082425 0.80615,-0.6407857 0.527098,-0.2325432 1.266069,-0.3152252 0.73897,-0.082682 1.586461,-0.1240231 V 4.0772571 q 0,-0.3307282 -0.118855,-0.5477685 -0.113688,-0.2170403 -0.330728,-0.3410633 -0.206705,-0.1188555 -0.496092,-0.1601965 -0.289388,-0.041341 -0.604613,-0.041341 -0.382404,0 -0.852658,0.1033525 -0.470254,0.098185 -0.971514,0.2893871 h -0.05168 V 2.3926107 q 0.284219,-0.077514 0.821652,-0.1705317 0.537434,-0.093017 1.059364,-0.093017 0.60978,0 1.059363,0.1033525 0.454751,0.098185 0.78548,0.3410634 0.32556,0.2377108 0.496092,0.6149476 0.170531,0.3772367 0.170531,0.9353404 z M 24.25684,6.6197294 V 5.0125975 q -0.444416,0.025838 -1.049028,0.077514 -0.599445,0.051676 -0.950843,0.1498612 -0.418578,0.1188554 -0.676959,0.3720691 -0.258382,0.2480461 -0.258382,0.6872944 0,0.4960921 0.299723,0.7493059 0.299722,0.248046 0.91467,0.248046 0.511595,0 0.93534,-0.1963698 0.423745,-0.2015374 0.785479,-0.4805893 z"
         id="path1010" />
      <path
         d="M 31.589703,8.0408268 H 30.623356 V 7.4258792 q -0.12919,0.08785 -0.351398,0.2480461 -0.217041,0.1550288 -0.423746,0.2480461 -0.242878,0.1188554 -0.558103,0.1963698 -0.315226,0.082682 -0.738971,0.082682 -0.780312,0 -1.322912,-0.5167627 -0.542601,-0.5167626 -0.542601,-1.3177448 0,-0.6562886 0.279052,-1.0593635 0.284219,-0.4082425 0.806149,-0.6407857 0.527098,-0.2325432 1.266069,-0.3152252 0.738971,-0.082682 1.586461,-0.1240231 V 4.0772571 q 0,-0.3307282 -0.118855,-0.5477685 -0.113688,-0.2170403 -0.330728,-0.3410633 -0.206705,-0.1188555 -0.496092,-0.1601965 -0.289387,-0.041341 -0.604613,-0.041341 -0.382404,0 -0.852658,0.1033525 -0.470254,0.098185 -0.971514,0.2893871 H 27.19722 V 2.3926107 q 0.284219,-0.077514 0.821652,-0.1705317 0.537434,-0.093017 1.059364,-0.093017 0.60978,0 1.059363,0.1033525 0.454752,0.098185 0.78548,0.3410634 0.32556,0.2377108 0.496092,0.6149476 0.170532,0.3772367 0.170532,0.9353404 z M 30.623356,6.6197294 V 5.0125975 q -0.444416,0.025838 -1.049028,0.077514 -0.599445,0.051676 -0.950843,0.1498612 -0.418578,0.1188554 -0.676959,0.3720691 -0.258382,0.2480461 -0.258382,0.6872944 0,0.4960921 0.299723,0.7493059 0.299722,0.248046 0.91467,0.248046 0.511595,0 0.93534,-0.1963698 0.423745,-0.2015374 0.785479,-0.4805893 z"
         id="path1012" />
      <path
         d="M 38.710692,8.0408268 H 37.429121 L 35.114024,5.5138573 34.483573,6.113302 V 8.0408268 H 33.51206 V -4.6566129e-7 h 0.971513 V 5.1572911 l 2.806022,-2.8887034 h 1.224727 l -2.681998,2.6664954 z"
         id="path1014" />
      <path
         d="M 40.777744,1.3022415 H 39.682207 V 0.29455426 h 1.095537 z m -0.06201,6.7385853 H 39.744218 V 2.2685877 h 0.971514 z"
         id="path1016" />
      <path
         d="M 43.687115,-4.6566129e-7 43.464908,2.9920554 H 42.76211 L 42.539902,-4.6566129e-7 Z"
         id="path1018" />
      <path
         d="m 49.62472,6.376851 q 0,0.7906469 -0.656289,1.2970743 -0.65112,0.5064274 -1.782831,0.5064274 -0.640785,0 -1.178219,-0.1498612 Q 45.475116,7.8754627 45.113382,7.6945958 V 6.6042266 h 0.05168 q 0.459919,0.3462309 1.02319,0.552936 0.563272,0.2015375 1.080034,0.2015375 0.640786,0 1.00252,-0.2067051 0.361734,-0.2067051 0.361734,-0.651121 0,-0.3410633 -0.19637,-0.5167627 Q 48.239796,5.808412 47.681692,5.684389 47.474987,5.6378803 47.139092,5.5758688 46.808364,5.5138573 46.534479,5.4415105 45.774838,5.2399731 45.454445,4.8524011 45.13922,4.4596614 45.13922,3.8912225 q 0,-0.3565663 0.144694,-0.6717915 0.149861,-0.3152252 0.449583,-0.5632713 0.289387,-0.2428785 0.733803,-0.3824044 0.449584,-0.1446935 1.00252,-0.1446935 0.516762,0 1.04386,0.1291906 0.532266,0.1240231 0.883665,0.30489 v 1.038693 h -0.05168 Q 48.973599,3.3279512 48.441334,3.1419166 47.909068,2.9507144 47.397473,2.9507144 q -0.532266,0 -0.899167,0.2067051 -0.366902,0.2015374 -0.366902,0.6046123 0,0.3565663 0.222208,0.5374332 0.217041,0.1808669 0.702798,0.2945547 0.268716,0.062012 0.599444,0.1240231 0.335896,0.062011 0.558104,0.1136878 0.676959,0.1550288 1.043861,0.5322655 0.366901,0.3824044 0.366901,1.0128549 z"
         id="path1020" />
      <path
         d="m 60.704111,8.0408268 h -1.02319 V 4.2736269 h -3.839547 v 3.7671999 h -1.02319 V 0.34623053 h 1.02319 V 3.3641246 h 3.839547 V 0.34623053 h 1.02319 z"
         id="path1022" />
      <path
         d="m 67.809598,2.6716626 q 0,0.511595 -0.180867,0.9508433 -0.1757,0.4340807 -0.496093,0.7544735 -0.397907,0.3979073 -0.940508,0.5994447 -0.5426,0.1963698 -1.369421,0.1963698 h -1.02319 v 2.8680329 h -1.02319 V 0.34623053 h 2.087721 q 0.692462,0 1.173052,0.11885541 0.480589,0.11368779 0.852658,0.36173388 0.439248,0.29455468 0.676959,0.73380298 0.242879,0.4392483 0.242879,1.1110398 z m -1.064532,0.025838 q 0,-0.3979073 -0.139526,-0.692462 Q 66.466015,1.710484 66.181795,1.5244494 65.933749,1.364253 65.613356,1.2970739 65.298131,1.2247271 64.812374,1.2247271 H 63.799519 V 4.299465 h 0.862994 q 0.620115,0 1.007687,-0.1085202 0.387572,-0.1136877 0.630451,-0.3565662 0.242878,-0.2480461 0.341063,-0.5219303 0.103352,-0.2738842 0.103352,-0.6149476 z"
         id="path1024" />
    </g>
  </g>
</svg>
